<svg width="22" height="24" viewBox="0 0 22 24" fill="none" xmlns="http://www.w3.org/2000/svg">
<path fill-rule="evenodd" clip-rule="evenodd" d="M10.2221 0.962055C10.6224 0.466923 11.3773 0.466923 11.7775 0.962055L13.372 2.9345C13.6206 3.24213 14.0273 3.37426 14.4093 3.27155L16.8586 2.613C17.4734 2.44769 18.0842 2.8914 18.1169 3.52723L18.2475 6.06016C18.2678 6.45521 18.5192 6.80113 18.8886 6.94257L21.2572 7.84946C21.8518 8.07711 22.0851 8.79505 21.7379 9.32871L20.3547 11.4546C20.1389 11.7862 20.1389 12.2138 20.3547 12.5454L21.7379 14.6713C22.0851 15.2049 21.8518 15.9229 21.2572 16.1505L18.8886 17.0574C18.5192 17.1989 18.2678 17.5448 18.2475 17.9398L18.1169 20.4728C18.0842 21.1086 17.4734 21.5523 16.8586 21.387L14.4093 20.7284C14.0273 20.6257 13.6206 20.7579 13.372 21.0655L11.7775 23.0379C11.3773 23.5331 10.6224 23.5331 10.2221 23.0379L8.62769 21.0655C8.37901 20.7579 7.97236 20.6257 7.59035 20.7284L5.14105 21.387C4.52621 21.5523 3.91549 21.1086 3.88272 20.4728L3.75216 17.9398C3.7318 17.5448 3.48048 17.1989 3.11105 17.0574L0.742435 16.1505C0.147854 15.9229 -0.0854183 15.2049 0.261798 14.6713L1.64499 12.5454C1.86073 12.2138 1.86073 11.7862 1.64499 11.4546L0.261798 9.32871C-0.0854179 8.79505 0.147854 8.07711 0.742435 7.84946L3.11105 6.94257C3.48048 6.80113 3.7318 6.45521 3.75216 6.06016L3.88272 3.52723C3.91549 2.8914 4.52621 2.44769 5.14105 2.613L7.59035 3.27155C7.97236 3.37426 8.37901 3.24213 8.62769 2.9345L10.2221 0.962055ZM16.2627 15.016C15.0194 16.9397 13.2572 17.9202 10.9949 18C8.75135 17.9249 7.01258 16.9678 5.76458 15.1052C5.64305 14.9222 5.63371 14.758 5.73654 14.5609C6.34885 13.388 7.2977 12.6795 8.59711 12.459C8.75135 12.4355 8.94767 12.4825 9.07854 12.5669C10.3593 13.388 11.6306 13.388 12.916 12.5669C13.0469 12.4825 13.2479 12.4308 13.3974 12.4543C14.7156 12.6748 15.6737 13.402 16.2861 14.5938C16.3608 14.7486 16.3515 14.8706 16.2627 15.016ZM10.9953 12.3267C12.7013 12.3314 14.0989 10.9359 14.1036 9.22778C14.1082 7.52429 12.706 6.12416 10.9999 6.12416C9.29389 6.12416 7.89632 7.51496 7.89632 9.22312C7.89165 10.9266 9.28921 12.3267 10.9953 12.3267Z" fill="white"/>
</svg>
