<svg width="16" height="16" viewBox="0 0 16 16" fill="none" xmlns="http://www.w3.org/2000/svg">
<path d="M8.00009 0.5C6.84965 0.499949 5.71462 0.764555 4.68281 1.27335C3.65099 1.78214 2.75006 2.52148 2.0497 3.43417C1.34934 4.34686 0.868328 5.40843 0.643879 6.53676C0.41943 7.66509 0.45756 8.82993 0.755319 9.94117C1.05308 11.0524 1.60248 12.0802 2.36103 12.9452C3.11958 13.8101 4.06694 14.4889 5.12982 14.9292C6.1927 15.3694 7.3426 15.5592 8.49057 15.4839C9.63854 15.4086 10.7538 15.0703 11.7501 14.495C11.8397 14.4481 11.9189 14.3836 11.983 14.3053C12.047 14.227 12.0946 14.1365 12.1227 14.0394C12.1509 13.9423 12.1592 13.8404 12.147 13.74C12.1348 13.6396 12.1024 13.5427 12.0518 13.4551C12.0011 13.3675 11.9333 13.2911 11.8524 13.2304C11.7715 13.1697 11.6791 13.126 11.5809 13.102C11.4826 13.0779 11.3805 13.074 11.2807 13.0904C11.1809 13.1068 11.0854 13.1432 11.0001 13.1975C9.85628 13.8579 8.52655 14.1224 7.2171 13.95C5.90764 13.7777 4.69165 13.1781 3.75768 12.2442C2.82372 11.3104 2.22399 10.0944 2.05148 8.78501C1.87898 7.47557 2.14335 6.14581 2.8036 5.00193C3.46384 3.85806 4.48307 2.96399 5.70321 2.45839C6.92335 1.95279 8.27622 1.86391 9.55202 2.20553C10.8278 2.54715 11.9553 3.30018 12.7595 4.34784C13.5637 5.39551 13.9998 6.67925 14.0001 8V8.5625C14.0001 8.9106 13.8618 9.24444 13.6157 9.49058C13.3695 9.73672 13.0357 9.875 12.6876 9.875C12.3395 9.875 12.0056 9.73672 11.7595 9.49058C11.5134 9.24444 11.3751 8.9106 11.3751 8.5625V5.375C11.3751 5.17609 11.2961 4.98532 11.1554 4.84467C11.0148 4.70402 10.824 4.625 10.6251 4.625C10.4507 4.62112 10.2804 4.67816 10.1435 4.7863C10.0066 4.89445 9.91168 5.04693 9.87509 5.2175C9.32377 4.83618 8.67041 4.62972 8.00009 4.625C7.43546 4.61825 6.87816 4.75327 6.37924 5.0177C5.88032 5.28213 5.45571 5.66751 5.14432 6.13855C4.83292 6.60959 4.64469 7.15124 4.59686 7.71387C4.54902 8.27651 4.64312 8.84215 4.87054 9.359C5.09795 9.87585 5.45141 10.3274 5.89853 10.6722C6.34566 11.0171 6.87217 11.2442 7.42983 11.3329C7.98749 11.4216 8.55849 11.3689 9.09052 11.1797C9.62254 10.9905 10.0986 10.6708 10.4751 10.25C10.8314 10.7115 11.3228 11.0505 11.8807 11.2198C12.4386 11.3891 13.0355 11.3803 13.5882 11.1947C14.1409 11.0091 14.6221 10.6558 14.9647 10.1841C15.3074 9.71234 15.4945 9.14553 15.5001 8.5625V8C15.5001 7.01509 15.3061 6.03982 14.9292 5.12987C14.5523 4.21993 13.9998 3.39314 13.3034 2.6967C12.6069 2.00026 11.7802 1.44781 10.8702 1.0709C9.96027 0.693993 8.985 0.5 8.00009 0.5ZM8.00009 9.875C7.62925 9.875 7.26673 9.76503 6.95839 9.55901C6.65005 9.35298 6.40973 9.06014 6.26781 8.71753C6.1259 8.37492 6.08877 7.99792 6.16111 7.63421C6.23346 7.27049 6.41204 6.9364 6.67426 6.67417C6.93648 6.41195 7.27058 6.23337 7.63429 6.16103C7.99801 6.08868 8.37501 6.12581 8.71762 6.26773C9.06023 6.40964 9.35306 6.64996 9.55909 6.95831C9.76512 7.26665 9.87509 7.62916 9.87509 8C9.87509 8.49728 9.67754 8.97419 9.32591 9.32582C8.97428 9.67746 8.49737 9.875 8.00009 9.875Z" fill="#0D0C3A" fill-opacity="0.6"/>
</svg>
