<svg width="12" height="12" viewBox="0 0 12 12" fill="none" xmlns="http://www.w3.org/2000/svg">
<path d="M6.096 12H2.4C1.0752 12 0 10.9248 0 9.6V5.904C0 4.5816 1.0752 3.504 2.4 3.504H3.528V2.4C3.528 1.0752 4.6032 0 5.928 0H9.6C10.9224 0 12 1.0752 12 2.4V6.072C12 7.3944 10.9248 8.472 9.6 8.472H4.3488C4.0392 8.472 3.7632 8.2872 3.6456 8.0016C3.528 7.716 3.5928 7.3896 3.8112 7.1712L6.0408 4.9416H2.4C1.872 4.9416 1.44 5.3712 1.44 5.9016V9.6C1.44 10.128 1.8696 10.56 2.4 10.56H6.096C6.624 10.56 7.056 10.1304 7.056 9.6V8.472H8.496V9.6C8.496 10.9248 7.4208 12 6.096 12ZM5.9856 7.032H9.6C10.128 7.032 10.56 6.6024 10.56 6.072V2.4C10.56 1.872 10.1304 1.44 9.6 1.44H5.928C5.4 1.44 4.968 1.8696 4.968 2.4V3.504H7.6752C7.9848 3.504 8.2608 3.6888 8.3784 3.9744C8.496 4.26 8.4312 4.5864 8.2128 4.8048L5.9856 7.032Z" fill="#0D0C3A" fill-opacity="0.6"/>
<path d="M6.096 12H2.4C1.0752 12 0 10.9248 0 9.6V5.904C0 4.5816 1.0752 3.504 2.4 3.504H3.528V2.4C3.528 1.0752 4.6032 0 5.928 0H9.6C10.9224 0 12 1.0752 12 2.4V6.072C12 7.3944 10.9248 8.472 9.6 8.472H4.3488C4.0392 8.472 3.7632 8.2872 3.6456 8.0016C3.528 7.716 3.5928 7.3896 3.8112 7.1712L6.0408 4.9416H2.4C1.872 4.9416 1.44 5.3712 1.44 5.9016V9.6C1.44 10.128 1.8696 10.56 2.4 10.56H6.096C6.624 10.56 7.056 10.1304 7.056 9.6V8.472H8.496V9.6C8.496 10.9248 7.4208 12 6.096 12ZM5.9856 7.032H9.6C10.128 7.032 10.56 6.6024 10.56 6.072V2.4C10.56 1.872 10.1304 1.44 9.6 1.44H5.928C5.4 1.44 4.968 1.8696 4.968 2.4V3.504H7.6752C7.9848 3.504 8.2608 3.6888 8.3784 3.9744C8.496 4.26 8.4312 4.5864 8.2128 4.8048L5.9856 7.032Z" fill="url(#paint0_linear_8_883)"/>
<defs>
<linearGradient id="paint0_linear_8_883" x1="-7.03611e-08" y1="6.13333" x2="12" y2="6.13333" gradientUnits="userSpaceOnUse">
<stop stop-color="#2E57FD"/>
<stop offset="1" stop-color="#1CD4DC"/>
</linearGradient>
</defs>
</svg>
